<svg width="18" height="18" viewBox="0 0 18 18" fill="none" xmlns="http://www.w3.org/2000/svg">
<g clip-path="url(#clip0_6350_29014)">
<path fill-rule="evenodd" clip-rule="evenodd" d="M6.37844 2.20378C5.8991 2.0647 5.54352 2.102 5.28488 2.2421C5.02622 2.38222 4.80073 2.65966 4.65535 3.13714C4.50892 3.61808 4.45894 4.26016 4.5301 5.03544C4.54163 5.16106 4.55627 5.2894 4.57402 5.42024C5.20184 5.26069 5.87654 5.13468 6.58546 5.0467C7.0769 4.35814 7.5924 3.73722 8.11538 3.19878C8.0892 3.17754 8.06303 3.15658 8.03685 3.1359C7.42638 2.65276 6.86128 2.34386 6.37844 2.20378ZM8.99992 2.37288C8.9271 2.31181 8.85428 2.25247 8.78153 2.19492C8.0952 1.65174 7.3923 1.24844 6.71282 1.0513C6.02984 0.853154 5.32878 0.853574 4.71332 1.18696C4.09786 1.52034 3.71452 2.10732 3.50738 2.78762C3.3013 3.46444 3.2551 4.27351 3.33512 5.14513C3.35388 5.34943 3.37972 5.55882 3.41254 5.77266C3.2089 5.84563 3.0125 5.92264 2.82394 6.00344C2.01943 6.34824 1.33004 6.7742 0.833062 7.27777C0.333541 7.7839 0 8.40055 0 9.10053C0 9.8005 0.33354 10.4171 0.833062 10.9233C1.33004 11.4268 2.01943 11.8528 2.82394 12.1977C3.0125 12.2784 3.2089 12.3555 3.41254 12.4284C3.3797 12.6423 3.35386 12.8517 3.3351 13.056C3.25508 13.9275 3.30128 14.7366 3.50736 15.4135C3.71449 16.0938 4.09783 16.6807 4.71328 17.0141C5.32876 17.3475 6.02982 17.3479 6.71279 17.1498C7.39228 16.9527 8.0952 16.5493 8.78153 16.0062C8.85428 15.9486 8.9271 15.8893 8.99992 15.8283C9.07275 15.8893 9.14557 15.9486 9.21832 16.0062C9.90465 16.5493 10.6076 16.9527 11.2871 17.1498C11.97 17.3479 12.671 17.3475 13.2866 17.0141C13.902 16.6807 14.2854 16.0938 14.4926 15.4135C14.6986 14.7366 14.7448 13.9275 14.6647 13.056C14.646 12.8517 14.6202 12.6423 14.5874 12.4284C14.791 12.3555 14.9874 12.2784 15.176 12.1977C15.9805 11.8528 16.6699 11.4268 17.167 10.9233C17.6664 10.4171 18 9.8005 18 9.10053C18 8.40055 17.6664 7.7839 17.167 7.27777C16.6699 6.7742 15.9805 6.34824 15.176 6.00344C14.9874 5.92262 14.791 5.8456 14.5874 5.77261C14.6201 5.55878 14.646 5.34942 14.6647 5.14513C14.7448 4.27351 14.6986 3.46444 14.4926 2.78762C14.2854 2.10732 13.902 1.52034 13.2866 1.18696C12.671 0.853574 11.97 0.853154 11.2871 1.0513C10.6076 1.24844 9.90465 1.65174 9.21832 2.19492C9.14557 2.25247 9.07275 2.31181 8.99992 2.37288ZM8.99992 4.01047C8.73015 4.28668 8.46023 4.58941 8.19323 4.91642C8.45925 4.90588 8.72835 4.90052 9 4.90052C9.27165 4.90052 9.54067 4.90588 9.80662 4.91642C9.5397 4.58941 9.2697 4.28668 8.99992 4.01047ZM11.4144 5.04668C10.9229 4.35814 10.4075 3.7372 9.88448 3.19878C9.91073 3.17754 9.93683 3.15658 9.963 3.1359C10.5735 2.65276 11.1386 2.34386 11.6214 2.20378C12.1008 2.0647 12.4564 2.102 12.715 2.2421C12.9737 2.38222 13.1992 2.65966 13.3445 3.13714C13.4909 3.61808 13.5409 4.26016 13.4698 5.03544C13.4582 5.16106 13.4436 5.28938 13.4258 5.4202C12.798 5.26066 12.1234 5.13466 11.4144 5.04668ZM10.7393 6.18028C10.1808 6.1282 9.59895 6.10052 9 6.10052C8.40105 6.10052 7.81912 6.1282 7.26062 6.1803C6.94883 6.64652 6.64733 7.14502 6.36206 7.6717C6.10226 8.15125 5.86939 8.62938 5.66359 9.10053C5.8694 9.57168 6.10228 10.0498 6.36208 10.5294C6.64734 11.0561 6.94884 11.5545 7.26062 12.0207C7.81905 12.0729 8.40105 12.1005 9 12.1005C9.59895 12.1005 10.1808 12.0729 10.7393 12.0207C11.051 11.5545 11.3525 11.0561 11.6378 10.5294C11.8976 10.0498 12.1304 9.57168 12.3362 9.10053C12.1304 8.62938 11.8976 8.15125 11.6378 7.6717C11.3525 7.145 11.051 6.64651 10.7393 6.18028ZM12.9274 7.54593C12.8515 7.3973 12.7734 7.24864 12.693 7.10012C12.5635 6.86125 12.4306 6.62719 12.2947 6.39835C12.6074 6.45788 12.9088 6.52552 13.1974 6.60048C13.1216 6.90754 13.0315 7.22336 12.9274 7.54593ZM12.9274 10.6551C12.8515 10.8038 12.7734 10.9524 12.6928 11.101C12.5635 11.3398 12.4306 11.5739 12.2947 11.8027C12.6074 11.7432 12.9088 11.6755 13.1974 11.6006C13.1216 11.2935 13.0315 10.9777 12.9274 10.6551ZM14.344 11.2393C14.17 10.5509 13.9336 9.83215 13.6378 9.10053C13.9336 8.3689 14.17 7.65018 14.344 6.96172C14.4676 7.00846 14.5873 7.05672 14.7034 7.10642C15.4189 7.4131 15.9596 7.7629 16.3128 8.12073C16.6634 8.47593 16.8 8.80638 16.8 9.10053C16.8 9.39468 16.6634 9.72505 16.3128 10.0803C15.9596 10.4382 15.4189 10.788 14.7034 11.0946C14.5873 11.1443 14.4676 11.1926 14.344 11.2393ZM13.4258 12.7809C12.798 12.9403 12.1234 13.0665 11.4144 13.1544C10.923 13.8429 10.4075 14.4639 9.88448 15.0023C9.91073 15.0235 9.9369 15.0445 9.963 15.0651C10.5735 15.5483 11.1386 15.8573 11.6214 15.9973C12.1008 16.1364 12.4564 16.0991 12.715 15.9591C12.9737 15.8189 13.1992 15.5415 13.3445 15.0639C13.491 14.583 13.5409 13.9409 13.4698 13.1657C13.4582 13.0401 13.4436 12.9117 13.4258 12.7809ZM8.99992 14.1906C9.2697 13.9143 9.5397 13.6116 9.80662 13.2846C9.54067 13.2951 9.27165 13.3005 9 13.3005C8.72835 13.3005 8.45925 13.2951 8.19323 13.2846C8.46015 13.6116 8.73015 13.9143 8.99992 14.1906ZM5.70512 11.8026C5.56918 11.5739 5.4363 11.3398 5.30693 11.101C5.22647 10.9524 5.1483 10.8038 5.07244 10.6551C4.96837 10.9776 4.87837 11.2935 4.8025 11.6005C5.09104 11.6755 5.39242 11.7431 5.70512 11.8026ZM4.574 12.7809C5.20182 12.9403 5.87652 13.0663 6.58543 13.1543C7.07688 13.8429 7.5924 14.4639 8.11538 15.0023C8.0892 15.0235 8.06295 15.0445 8.03685 15.0651C7.42636 15.5483 6.86126 15.8573 6.37842 15.9973C5.89907 16.1364 5.5435 16.0991 5.28485 15.9591C5.02619 15.8189 4.8007 15.5415 4.65532 15.0639C4.50889 14.583 4.45892 13.9409 4.53008 13.1657C4.54162 13.0401 4.55626 12.9117 4.574 12.7809ZM3.65587 11.2392C3.82987 10.5509 4.06612 9.83208 4.36192 9.10053C4.06612 8.3689 3.82988 7.65018 3.65587 6.96178C3.53239 7.00849 3.4126 7.05673 3.29666 7.10642C2.58107 7.4131 2.04032 7.7629 1.68716 8.12073C1.33656 8.47593 1.2 8.80638 1.2 9.10053C1.2 9.39468 1.33656 9.72505 1.68716 10.0803C2.04032 10.4382 2.58107 10.788 3.29666 11.0946C3.4126 11.1443 3.53239 11.1926 3.65587 11.2392ZM4.8025 6.60052C4.87837 6.90756 4.96837 7.22338 5.07244 7.54593C5.14828 7.3973 5.22646 7.24866 5.3069 7.10012C5.43629 6.86126 5.56918 6.62722 5.70512 6.39838C5.39243 6.45792 5.09104 6.52555 4.8025 6.60052ZM7.2 9.10053C7.2 8.1064 8.00587 7.30052 9 7.30052C9.99413 7.30052 10.8 8.1064 10.8 9.10053C10.8 10.0947 9.99413 10.9005 9 10.9005C8.00587 10.9005 7.2 10.0947 7.2 9.10053ZM9 8.50053C8.66865 8.50053 8.4 8.76918 8.4 9.10053C8.4 9.43188 8.66865 9.70053 9 9.70053C9.33135 9.70053 9.6 9.43188 9.6 9.10053C9.6 8.76918 9.33135 8.50053 9 8.50053Z" fill="#64748B"/>
</g>
<defs>
<clipPath id="clip0_6350_29014">
<rect width="18" height="18" fill="white"/>
</clipPath>
</defs>
</svg>
